<svg width="1227" height="98" viewBox="0 0 1227 98" fill="none" xmlns="http://www.w3.org/2000/svg">
<path d="M58.56 22.4399L18.24 77.3999H6.13928e-06V13.7999H11.16V68.2799L51.48 13.7999H69.72V77.3999H58.56V22.4399ZM189.204 67.3199V91.5599H178.164V77.3999H86.4844V13.7999H97.6444V67.1999H126.684V13.7999H137.844V67.1999H167.004V13.7999H178.164V67.3199H189.204ZM272.893 59.2799C271.693 62.7199 269.933 65.7599 267.613 68.3999C265.293 71.0399 262.493 73.2399 259.213 74.9999C256.013 76.7599 252.413 78.0799 248.413 78.9599C244.413 79.8399 240.213 80.2799 235.813 80.2799C230.053 80.2799 224.813 79.5599 220.093 78.1199C215.373 76.7599 211.293 74.6399 207.853 71.7599C204.493 68.8799 201.853 65.2399 199.933 60.8399C198.093 56.4399 197.133 51.2799 197.053 45.3599C197.053 39.4399 198.013 34.2799 199.933 29.8799C201.933 25.3999 204.653 21.7199 208.093 18.8399C211.613 15.8799 215.773 13.6799 220.573 12.2399C225.373 10.7199 230.613 9.9599 236.293 9.9599C242.853 9.9599 248.573 10.8799 253.453 12.7199C258.413 14.5599 262.453 17.1999 265.573 20.6399C268.773 23.9999 271.053 28.0799 272.413 32.8799C273.773 37.6799 274.133 42.9999 273.493 48.8399H208.693C209.573 56.1199 212.333 61.5199 216.973 65.0399C221.693 68.5599 227.973 70.3199 235.813 70.3199C241.573 70.3199 246.653 69.4399 251.053 67.6799C255.453 65.8399 258.693 62.9999 260.773 59.1599L272.893 59.2799ZM236.533 19.9199C229.173 19.9199 223.013 21.5199 218.053 24.7199C213.173 27.8399 210.173 32.6799 209.053 39.2399H262.333C262.253 36.1999 261.493 33.4799 260.053 31.0799C258.693 28.6799 256.853 26.6799 254.533 25.0799C252.213 23.3999 249.493 22.1199 246.373 21.2399C243.253 20.3599 239.973 19.9199 236.533 19.9199ZM322.964 23.9999V77.3999H311.684V23.9999H281.564V13.7999H352.844V23.9999H322.964ZM501.103 87.9599V97.7999H442.423V87.9599H466.663V67.9199C464.423 70.6399 461.543 72.7199 458.023 74.1599C454.503 75.5999 450.223 76.2799 445.183 76.1999C435.663 76.1999 428.383 73.9199 423.343 69.3599C418.383 64.7199 415.903 57.9199 415.903 48.9599C415.903 45.5199 416.423 42.1199 417.463 38.7599C418.503 35.3999 420.183 32.3999 422.503 29.7599C424.903 27.1199 427.983 24.9999 431.743 23.3999C435.503 21.7199 440.103 20.8799 445.543 20.8799C450.583 20.8799 454.823 21.6399 458.263 23.1599C461.703 24.6799 464.503 26.7999 466.663 29.5199V9.8399H442.423V-0.00010252H501.103V9.8399H477.823V29.3999C479.983 26.6799 482.783 24.5999 486.223 23.1599C489.743 21.6399 493.983 20.8799 498.943 20.8799C504.383 20.8799 508.983 21.7199 512.743 23.3999C516.503 24.9999 519.543 27.1199 521.863 29.7599C524.263 32.3999 525.983 35.3999 527.023 38.7599C528.063 42.1199 528.583 45.5199 528.583 48.9599C528.583 57.9199 526.063 64.7199 521.023 69.3599C516.063 73.9199 508.863 76.1999 499.423 76.1999C494.383 76.2799 490.063 75.5999 486.463 74.1599C482.943 72.7199 480.063 70.6399 477.823 67.9199V87.9599H501.103ZM427.303 49.3199C427.383 55.4799 429.183 59.8799 432.703 62.5199C436.223 65.0799 440.983 66.3599 446.983 66.3599C459.143 66.3599 465.703 61.0399 466.663 50.3999V46.0799C466.183 40.7199 464.263 36.8399 460.903 34.4399C457.543 32.0399 452.863 30.8399 446.863 30.8399C444.143 30.8399 441.583 31.1999 439.183 31.9199C436.863 32.5599 434.823 33.6399 433.063 35.1599C431.303 36.6799 429.903 38.5999 428.863 40.9199C427.903 43.2399 427.383 46.0399 427.303 49.3199ZM477.823 48.2399C477.903 54.2399 479.543 58.7599 482.743 61.7999C485.943 64.8399 490.863 66.3599 497.503 66.3599C503.503 66.3599 508.263 65.0799 511.783 62.5199C515.303 59.8799 517.103 55.4799 517.183 49.3199C517.183 46.0399 516.663 43.2399 515.623 40.9199C514.583 38.5999 513.183 36.6799 511.423 35.1599C509.743 33.6399 507.703 32.5599 505.303 31.9199C502.983 31.1999 500.423 30.8399 497.623 30.8399C491.223 30.8399 486.343 32.1999 482.983 34.9199C479.623 37.6399 477.903 42.0799 477.823 48.2399ZM614.026 59.2799C612.826 62.7199 611.066 65.7599 608.746 68.3999C606.426 71.0399 603.626 73.2399 600.346 74.9999C597.146 76.7599 593.546 78.0799 589.546 78.9599C585.546 79.8399 581.346 80.2799 576.946 80.2799C571.186 80.2799 565.946 79.5599 561.226 78.1199C556.506 76.7599 552.426 74.6399 548.986 71.7599C545.626 68.8799 542.986 65.2399 541.066 60.8399C539.226 56.4399 538.266 51.2799 538.186 45.3599C538.186 39.4399 539.146 34.2799 541.066 29.8799C543.066 25.3999 545.786 21.7199 549.226 18.8399C552.746 15.8799 556.906 13.6799 561.706 12.2399C566.506 10.7199 571.746 9.9599 577.426 9.9599C583.986 9.9599 589.706 10.8799 594.586 12.7199C599.546 14.5599 603.586 17.1999 606.706 20.6399C609.906 23.9999 612.186 28.0799 613.546 32.8799C614.906 37.6799 615.266 42.9999 614.626 48.8399H549.826C550.706 56.1199 553.466 61.5199 558.106 65.0399C562.826 68.5599 569.106 70.3199 576.946 70.3199C582.706 70.3199 587.786 69.4399 592.186 67.6799C596.586 65.8399 599.826 62.9999 601.906 59.1599L614.026 59.2799ZM577.666 19.9199C570.306 19.9199 564.146 21.5199 559.186 24.7199C554.306 27.8399 551.306 32.6799 550.186 39.2399H603.466C603.386 36.1999 602.626 33.4799 601.186 31.0799C599.826 28.6799 597.986 26.6799 595.666 25.0799C593.346 23.3999 590.626 22.1199 587.506 21.2399C584.386 20.3599 581.106 19.9199 577.666 19.9199ZM640.457 51.4799V77.3999H629.297V13.7999H640.457V41.2799H686.897V13.9199L698.057 13.7999V77.3999H687.017V51.4799H640.457ZM786.124 45.8399C786.044 51.6799 785.044 56.7999 783.124 61.1999C781.284 65.5199 778.644 69.1199 775.204 71.9999C771.844 74.8799 767.804 77.0399 763.084 78.4799C758.444 79.9199 753.284 80.6399 747.604 80.6399C741.844 80.6399 736.644 79.9199 732.004 78.4799C727.364 77.1199 723.364 74.9999 720.004 72.1199C716.724 69.2399 714.164 65.5999 712.324 61.1999C710.484 56.7999 709.524 51.6399 709.444 45.7199C709.444 39.7999 710.364 34.6399 712.204 30.2399C714.044 25.7599 716.604 22.0799 719.884 19.1999C723.244 16.2399 727.244 14.0399 731.884 12.5999C736.604 11.0799 741.804 10.3199 747.484 10.3199C753.244 10.3199 758.484 11.0399 763.204 12.4799C767.924 13.9199 771.964 16.1199 775.324 19.0799C778.764 21.9599 781.404 25.6399 783.244 30.1199C785.164 34.5999 786.124 39.8399 786.124 45.8399ZM720.844 45.4799C721.004 54.1199 723.364 60.4799 727.924 64.5599C732.564 68.5599 739.124 70.5599 747.604 70.5599C756.084 70.5599 762.684 68.5599 767.404 64.5599C772.124 60.5599 774.564 54.1999 774.724 45.4799C774.564 36.7599 772.084 30.3999 767.284 26.3999C762.484 22.3199 755.844 20.2799 747.364 20.2799C738.884 20.2799 732.364 22.3199 727.804 26.3999C723.324 30.3999 721.004 36.7599 720.844 45.4799ZM808.855 22.0799V77.3999H797.695V13.7999H817.735L838.735 68.3999L859.735 13.7999H880.015V77.3999H868.855V21.4799L847.135 77.3999H830.335L808.855 22.0799ZM970.276 59.2799C969.076 62.7199 967.316 65.7599 964.996 68.3999C962.676 71.0399 959.876 73.2399 956.596 74.9999C953.396 76.7599 949.796 78.0799 945.796 78.9599C941.796 79.8399 937.596 80.2799 933.196 80.2799C927.436 80.2799 922.196 79.5599 917.476 78.1199C912.756 76.7599 908.676 74.6399 905.236 71.7599C901.876 68.8799 899.236 65.2399 897.316 60.8399C895.476 56.4399 894.516 51.2799 894.436 45.3599C894.436 39.4399 895.396 34.2799 897.316 29.8799C899.316 25.3999 902.036 21.7199 905.476 18.8399C908.996 15.8799 913.156 13.6799 917.956 12.2399C922.756 10.7199 927.996 9.9599 933.676 9.9599C940.236 9.9599 945.956 10.8799 950.836 12.7199C955.796 14.5599 959.836 17.1999 962.956 20.6399C966.156 23.9999 968.436 28.0799 969.796 32.8799C971.156 37.6799 971.516 42.9999 970.876 48.8399H906.076C906.956 56.1199 909.716 61.5199 914.356 65.0399C919.076 68.5599 925.356 70.3199 933.196 70.3199C938.956 70.3199 944.036 69.4399 948.436 67.6799C952.836 65.8399 956.076 62.9999 958.156 59.1599L970.276 59.2799ZM933.916 19.9199C926.556 19.9199 920.396 21.5199 915.436 24.7199C910.556 27.8399 907.556 32.6799 906.436 39.2399H959.716C959.636 36.1999 958.876 33.4799 957.436 31.0799C956.076 28.6799 954.236 26.6799 951.916 25.0799C949.596 23.3999 946.876 22.1199 943.756 21.2399C940.636 20.3599 937.356 19.9199 933.916 19.9199ZM996.707 51.4799V77.3999H985.547V13.7999H996.707V41.2799H1043.15V13.9199L1054.31 13.7999V77.3999H1043.27V51.4799H996.707ZM1142.37 45.8399C1142.29 51.6799 1141.29 56.7999 1139.37 61.1999C1137.53 65.5199 1134.89 69.1199 1131.45 71.9999C1128.09 74.8799 1124.05 77.0399 1119.33 78.4799C1114.69 79.9199 1109.53 80.6399 1103.85 80.6399C1098.09 80.6399 1092.89 79.9199 1088.25 78.4799C1083.61 77.1199 1079.61 74.9999 1076.25 72.1199C1072.97 69.2399 1070.41 65.5999 1068.57 61.1999C1066.73 56.7999 1065.77 51.6399 1065.69 45.7199C1065.69 39.7999 1066.61 34.6399 1068.45 30.2399C1070.29 25.7599 1072.85 22.0799 1076.13 19.1999C1079.49 16.2399 1083.49 14.0399 1088.13 12.5999C1092.85 11.0799 1098.05 10.3199 1103.73 10.3199C1109.49 10.3199 1114.73 11.0399 1119.45 12.4799C1124.17 13.9199 1128.21 16.1199 1131.57 19.0799C1135.01 21.9599 1137.65 25.6399 1139.49 30.1199C1141.41 34.5999 1142.37 39.8399 1142.37 45.8399ZM1077.09 45.4799C1077.25 54.1199 1079.61 60.4799 1084.17 64.5599C1088.81 68.5599 1095.37 70.5599 1103.85 70.5599C1112.33 70.5599 1118.93 68.5599 1123.65 64.5599C1128.37 60.5599 1130.81 54.1999 1130.97 45.4799C1130.81 36.7599 1128.33 30.3999 1123.53 26.3999C1118.73 22.3199 1112.09 20.2799 1103.61 20.2799C1095.13 20.2799 1088.61 22.3199 1084.05 26.3999C1079.57 30.3999 1077.25 36.7599 1077.09 45.4799ZM1226.79 59.9999C1226.79 65.9999 1224.99 70.3999 1221.39 73.1999C1217.79 75.9999 1213.19 77.3999 1207.59 77.3999H1153.95V13.7999H1203.51C1206.47 13.7999 1209.19 14.1599 1211.67 14.8799C1214.15 15.5999 1216.27 16.7199 1218.03 18.2399C1219.79 19.6799 1221.15 21.5599 1222.11 23.8799C1223.15 26.1999 1223.67 28.9199 1223.67 32.0399C1223.59 35.6399 1222.91 38.4399 1221.63 40.4399C1220.43 42.4399 1218.67 43.9199 1216.35 44.8799C1219.39 45.7599 1221.87 47.4799 1223.79 50.0399C1225.71 52.5999 1226.71 55.9199 1226.79 59.9999ZM1165.11 41.5199L1200.51 41.6399C1204.11 41.5599 1206.99 40.9599 1209.15 39.8399C1211.31 38.7199 1212.43 36.3999 1212.51 32.8799C1212.51 30.6399 1212.15 28.9199 1211.43 27.7199C1210.71 26.4399 1209.75 25.5199 1208.55 24.9599C1207.35 24.3199 1205.91 23.9599 1204.23 23.8799C1202.63 23.7199 1200.91 23.6399 1199.07 23.6399H1165.11V41.5199ZM1165.11 67.5599H1203.87C1207.95 67.5599 1210.91 66.9999 1212.75 65.8799C1214.59 64.7599 1215.55 62.5199 1215.63 59.1599C1215.55 55.8799 1214.59 53.7599 1212.75 52.7999C1210.99 51.7599 1208.11 51.2399 1204.11 51.2399H1165.11V67.5599Z" fill="white"/>
</svg>
