<svg xmlns="http://www.w3.org/2000/svg" width="101" height="40" fill="none">
  <g clip-path="url(#a)">
    <path fill="#f85600" d="M2 0h10v40h-.343a4 4 0 0 1-2.829-1.172l-7.656-7.656A4 4 0 0 1 0 28.343V2a2 2 0 0 1 2-2"/>
  </g>
  <path fill="#f85600" d="M12 0h77v40H12z"/>
  <path fill="#020000" d="M34.624 23.592V25H25.12V13.8h1.568v9.792zm8.87-.96q-.017 1.36-.849 2.064-.816.704-2.384.704h-.544q-1.568 0-2.432-.704-.864-.72-.896-2.176 0-1.424.88-2.096.88-.688 2.448-.688h4.912q-.08-.704-.4-1.152a2.4 2.4 0 0 0-.752-.72 2.7 2.7 0 0 0-.944-.368 4.2 4.2 0 0 0-.928-.112h-.16q-.431 0-.896.064a3.7 3.7 0 0 0-.896.24q-.432.16-.784.448-.351.288-.528.752h-1.568a2.45 2.45 0 0 1 .448-1.136q.384-.512.992-.88.624-.384 1.424-.592a7 7 0 0 1 1.728-.208h.128q1.249 0 2.128.288.88.288 1.44.88.561.592.816 1.504.257.912.272 2.16V25h-1.488v-3.984L43.013 21q.48.656.48 1.632m-5.617-.112q.016.768.448 1.168.432.384 1.392.384h.544q.928 0 1.36-.384t.464-1.168q-.031-.784-.448-1.152Q41.221 21 40.261 21h-.544q-.96 0-1.392.368t-.448 1.152m21.2-1.664q-.015 1.168-.368 2.032a3.7 3.7 0 0 1-1.008 1.408q-.656.56-1.584.832-.912.272-2.064.272-1.248.016-2.256-.384a4.54 4.54 0 0 1-1.696-1.104L50.197 25H48.71V13.8h1.488v3.584q1.296-1.2 3.696-1.2 1.216 0 2.176.288.96.272 1.632.848.672.577 1.024 1.456.352.88.352 2.08m-8.864-.048q.033 1.728 1.024 2.464.993.736 2.736.736 1.728 0 2.64-.72.912-.735.944-2.48-.032-1.76-.896-2.528-.863-.768-2.72-.768-1.855 0-2.784.768-.911.768-.944 2.528m20.577 1.776q-.24.688-.704 1.216-.465.528-1.12.88-.639.352-1.44.528a7.8 7.8 0 0 1-1.68.176 7.2 7.2 0 0 1-2.096-.288 4.4 4.4 0 0 1-1.632-.848 4 4 0 0 1-1.056-1.456q-.367-.88-.384-2.064 0-1.184.384-2.064a4 4 0 0 1 1.088-1.472 4.6 4.6 0 0 1 1.664-.88 6.9 6.9 0 0 1 2.096-.304q1.313 0 2.288.368.993.368 1.616 1.056.64.672.912 1.632t.144 2.128h-8.64q.176 1.455 1.104 2.16.945.704 2.512.704 1.152 0 2.032-.352.88-.368 1.296-1.136zm-4.848-5.248q-1.471 0-2.464.64-.975.624-1.2 1.936h7.104a2.2 2.2 0 0 0-.304-1.088 2.4 2.4 0 0 0-.736-.8 3.4 3.4 0 0 0-1.088-.512 4.8 4.8 0 0 0-1.312-.176m8.876-3.552V25h-1.504V13.8z"/>
  <g clip-path="url(#b)">
    <path fill="#f85600" d="M99 40H89V0h.343a4 4 0 0 1 2.829 1.172l7.656 7.656A4 4 0 0 1 101 11.657V38a2 2 0 0 1-2 2"/>
  </g>
  <defs>
    <clipPath id="a">
      <path fill="#fff" d="M0 0h12v40H0z"/>
    </clipPath>
    <clipPath id="b">
      <path fill="#fff" d="M89 0h12v40H89z"/>
    </clipPath>
  </defs>
</svg>