<svg xmlns="http://www.w3.org/2000/svg" width="38" height="32" fill="none">
  <path fill="#fff" d="M35.324 9.052c-.779-1.564-2.203-2.763-3.905-3.287C27.46 4.546 23.283 3.93 19.003 3.93s-8.456.616-12.415 1.835c-1.702.524-3.127 1.723-3.905 3.287C1.563 11.288 1 13.624 1 16c0 2.375.563 4.711 1.68 6.948.778 1.564 2.202 2.763 3.905 3.287C10.543 27.454 14.72 28.07 19 28.07s8.457-.616 12.415-1.835c1.703-.524 3.127-1.723 3.906-3.287C36.434 20.71 37 18.375 37 16s-.563-4.712-1.676-6.948m-2.077 12.862a4.18 4.18 0 0 1-2.51 2.104C27 25.168 23.05 25.751 19 25.751s-7.996-.583-11.736-1.733a4.18 4.18 0 0 1-2.511-2.104c-.95-1.912-1.434-3.9-1.434-5.914 0-2.015.483-4.002 1.434-5.914.497-1 1.414-1.766 2.514-2.104C11.004 6.832 14.952 6.249 19 6.249s7.996.583 11.733 1.733a4.18 4.18 0 0 1 2.514 2.104c.95 1.912 1.434 3.9 1.434 5.914s-.483 4.002-1.434 5.914"/>
  <path fill="#fff" d="M8.81 11.226 13.138 16 8.81 20.774h4.07L17.206 16l-4.323-4.774zM25.118 11.226 20.795 16l4.323 4.774h4.071L24.866 16l4.323-4.774z"/>
</svg>