<svg width="182" height="32" viewBox="0 0 182 32" fill="none" xmlns="http://www.w3.org/2000/svg">
<g clip-path="url(#clip0_10_38)">
<path d="M35.6305 8.78762C34.8224 7.16423 33.3438 5.91918 31.5764 5.37575C27.4673 4.11006 23.1313 3.47034 18.6886 3.47034C14.246 3.47034 9.90996 4.11006 5.80087 5.37575C4.03344 5.91918 2.55486 7.16423 1.74679 8.78762C0.584557 11.1092 0 13.534 0 16C0 18.466 0.584557 20.8908 1.74335 23.2124C2.55142 24.8358 4.03 26.0808 5.79743 26.6243C9.90652 27.8899 14.2426 28.5297 18.6852 28.5297C23.1278 28.5297 27.4638 27.8899 31.5729 26.6243C33.3404 26.0808 34.8189 24.8358 35.627 23.2124C36.7824 20.8908 37.3704 18.466 37.3704 16C37.3704 13.534 36.7858 11.1092 35.6305 8.78762ZM33.4745 22.1393C32.9587 23.1746 32.0062 23.9725 30.868 24.3233C26.9893 25.5168 22.8906 26.1221 18.6852 26.1221C14.4798 26.1221 10.3845 25.5168 6.50233 24.3233C5.36073 23.9725 4.41168 23.1746 3.8959 22.1393C2.90903 20.1548 2.407 18.0911 2.407 16C2.407 13.9089 2.90903 11.8452 3.8959 9.86071C4.41168 8.82201 5.36417 8.02752 6.50577 7.6767C10.3845 6.48323 14.4833 5.8779 18.6852 5.8779C22.8871 5.8779 26.9859 6.48323 30.8646 7.6767C32.0062 8.02752 32.9552 8.82201 33.4745 9.86071C34.4613 11.8452 34.9634 13.9089 34.9634 16C34.9634 18.0911 34.4613 20.1548 33.4745 22.1393Z" fill="white"/>
<path d="M8.10815 11.0439L12.5989 16L8.10815 20.9561H12.3342L16.8215 16L12.3342 11.0439H8.10815Z" fill="white"/>
<path d="M25.0362 11.0439L20.5488 16L25.0362 20.9561H29.2622L24.7748 16L29.2622 11.0439H25.0362Z" fill="white"/>
<path d="M64.879 5.87447H62.0457V26.1221H64.879V5.87447Z" fill="white"/>
<path d="M79.9744 13.8882H66.4023L68.4792 16.4334H79.9744V26.1221H82.8112V5.87447H79.9744V13.8882Z" fill="white"/>
<path d="M164.068 5.87447H161.235V26.1221H164.068V5.87447Z" fill="white"/>
<path d="M179.167 5.87447V13.8882H165.591L167.672 16.4334H179.167V26.1221H182V5.87447H179.167Z" fill="white"/>
<path d="M89.6918 24.0688V5.87447H86.8584V26.1221H91.7171L104.701 7.90026V26.1221H107.535V5.87447H102.676L89.6918 24.0688Z" fill="white"/>
<path d="M114.419 24.0688V5.87447H111.585V26.1221H116.44L129.425 7.90026V26.1221H132.261V5.87447H127.403L114.419 24.0688Z" fill="white"/>
<path d="M154.065 14.9579C154.76 14.552 155.327 14.0189 155.771 13.3517C156.214 12.6879 156.434 11.8315 156.434 10.7928C156.434 9.80912 156.255 9.0043 155.898 8.37834C155.54 7.75237 155.035 7.25022 154.381 6.87533C153.725 6.50043 152.941 6.23904 152.026 6.09459C151.111 5.95013 150.083 5.87791 148.945 5.87791H136.308V26.1255H149.757C152.301 26.1255 154.234 25.6681 155.554 24.7532C156.874 23.8384 157.535 22.3285 157.535 20.227C157.535 18.724 157.239 17.5718 156.651 16.7704C156.063 15.969 155.2 15.3672 154.062 14.9613L154.065 14.9579ZM139.142 8.41961H148.625C149.416 8.41961 150.111 8.44712 150.706 8.50559C151.304 8.56406 151.799 8.68444 152.195 8.86673C152.59 9.04902 152.889 9.32073 153.092 9.67498C153.295 10.0327 153.395 10.5004 153.395 11.0783C153.395 11.6561 153.302 12.1341 153.12 12.509C152.937 12.8839 152.655 13.1797 152.28 13.393C151.906 13.6062 151.417 13.7506 150.819 13.8263C150.221 13.902 149.509 13.9433 148.68 13.9433H139.138V8.41961H139.142ZM154.282 21.4652C154.158 21.9089 153.924 22.2906 153.587 22.6071C153.25 22.9269 152.772 23.1677 152.157 23.3293C151.538 23.4944 150.74 23.577 149.757 23.577H139.145V16.4918H149.671C150.692 16.4918 151.517 16.5675 152.143 16.7223C152.769 16.877 153.257 17.1075 153.604 17.417C153.952 17.7266 154.182 18.0911 154.299 18.5176C154.416 18.9407 154.471 19.4325 154.471 19.9931C154.471 20.5537 154.409 21.0249 154.282 21.4686V21.4652Z" fill="white"/>
<path d="M50.2754 0H49.1406V32H50.2754V0Z" fill="white"/>
</g>
<defs>
<clipPath id="clip0_10_38">
<rect width="182" height="32" fill="white"/>
</clipPath>
</defs>
</svg>
