<svg xmlns="http://www.w3.org/2000/svg" width="182" height="32" fill="none">
  <g fill="#fff" clip-path="url(#a)">
    <path d="M35.63 8.788c-.808-1.623-2.286-2.868-4.054-3.412-4.109-1.266-8.445-1.905-12.887-1.905S9.91 4.11 5.8 5.376c-1.768.544-3.246 1.789-4.054 3.412C.585 11.11 0 13.534 0 16s.585 4.891 1.743 7.213c.808 1.623 2.287 2.868 4.054 3.412 4.11 1.265 8.446 1.905 12.888 1.905s8.779-.64 12.888-1.905c1.767-.544 3.246-1.789 4.054-3.412C36.782 20.89 37.37 18.466 37.37 16s-.584-4.89-1.74-7.212M33.475 22.14c-.515 1.035-1.468 1.833-2.606 2.184-3.879 1.193-7.977 1.798-12.183 1.798s-8.3-.605-12.183-1.798a4.33 4.33 0 0 1-2.606-2.184C2.909 20.155 2.407 18.09 2.407 16s.502-4.154 1.489-6.139c.516-1.039 1.468-1.833 2.61-2.184 3.878-1.193 7.977-1.799 12.18-1.799 4.201 0 8.3.606 12.179 1.8a4.34 4.34 0 0 1 2.61 2.183c.986 1.985 1.488 4.048 1.488 6.14 0 2.09-.502 4.154-1.489 6.139"/>
    <path d="M8.108 11.044 12.598 16l-4.49 4.956h4.226L16.822 16l-4.488-4.956zM25.036 11.044 20.55 16l4.487 4.956h4.226L24.775 16l4.487-4.956zM64.879 5.874h-2.833v20.248h2.833zM79.974 13.888H66.402l2.077 2.545h11.495v9.689h2.837V5.874h-2.837zM164.068 5.874h-2.833v20.248h2.833zM179.167 5.874v8.014h-13.576l2.081 2.545h11.495v9.689H182V5.874zM89.692 24.068V5.874h-2.834v20.248h4.86L104.7 7.9v18.222h2.834V5.874h-4.859zM114.419 24.068V5.874h-2.834v20.248h4.855L129.425 7.9v18.222h2.836V5.874h-4.858zM154.065 14.958a5.1 5.1 0 0 0 1.706-1.606q.664-.998.663-2.56 0-1.475-.536-2.414a4 4 0 0 0-1.517-1.503q-.983-.563-2.355-.78a20 20 0 0 0-3.081-.217h-12.637v20.248h13.449q3.817 0 5.797-1.373t1.981-4.526q-.001-2.254-.884-3.457-.882-1.2-2.589-1.809zM139.142 8.42h9.483q1.188-.001 2.081.086.896.087 1.489.36.592.276.897.809.304.537.303 1.403-.001.868-.275 1.431-.276.563-.84.884-.562.32-1.461.433a17 17 0 0 1-2.139.117h-9.542V8.42zm15.14 13.045a2.45 2.45 0 0 1-.695 1.142q-.506.48-1.43.722-.927.248-2.4.248h-10.612v-7.085h10.526q1.532-.001 2.472.23.94.232 1.461.695.52.463.695 1.1.174.636.172 1.476a5.3 5.3 0 0 1-.189 1.476zM50.275 0h-1.134v32h1.134z"/>
  </g>
  <defs>
    <clipPath id="a">
      <path fill="#fff" d="M0 0h182v32H0z"/>
    </clipPath>
  </defs>
</svg>