<svg xmlns="http://www.w3.org/2000/svg" width="135" height="24" fill="none">
  <g fill="#fff" clip-path="url(#a)">
    <path d="M24.953 18.295H9.14a9 9 0 0 1-3.774-.82A9.18 9.18 0 0 1 0 9.147 9.18 9.18 0 0 1 5.365.82 9 9 0 0 1 9.139 0h15.814v1.778H9.14a7.3 7.3 0 0 0-3.038.66 7.39 7.39 0 0 0-4.324 6.71A7.39 7.39 0 0 0 6.1 15.855c.96.438 1.982.66 3.038.66h15.814z"/>
    <path d="M24.243 6.57q-.71-1.103-1.988-1.715t-2.985-.612q-1.707 0-2.985.612T14.298 6.57t-.71 2.577.71 2.577q.71 1.103 1.988 1.715 1.28.612 2.985.612 1.708 0 2.985-.612 1.278-.612 1.988-1.715t.71-2.577q0-1.472-.71-2.577M48.526 20.548h4.565v-2.02h-4.565l-.154-.93h5.083v-2.316h-8.176l.624 4.256-.624 4.256h8.232V21.48h-5.139zM61.648 15.663q-.823-.38-1.979-.38h-4.956v8.513h2.925V21.48h2.03q1.156 0 1.978-.38t1.254-1.079q.43-.697.43-1.64t-.43-1.64q-.43-.698-1.254-1.08zm-1.503 3.32q-.238.216-.669.216H57.64v-1.634h1.836q.431 0 .67.21.236.21.237.607c0 .265-.08.458-.238.602zM71.14 15.663q-.823-.38-1.98-.38h-4.955v8.513h2.925V21.48h2.03q1.157 0 1.98-.38.822-.38 1.253-1.079.43-.697.431-1.64 0-.943-.43-1.64-.432-.698-1.254-1.08m-1.503 3.32q-.238.216-.669.216h-1.836v-1.634h1.836q.431 0 .67.21.236.21.237.607c0 .265-.08.458-.238.602zM76.6 20.788v-5.506h-2.903v8.513h3.708l3.447-5.688v5.688h2.904v-8.513h-3.822zM84.674 17.893h3.061v5.901h2.926v-5.9h3.063v-2.612h-9.05zM101.928 15.635q-1.163-.556-2.716-.557-1.553 0-2.715.557-1.163.555-1.808 1.56-.647 1.004-.647 2.345 0 1.34.647 2.344.646 1.005 1.808 1.56 1.163.556 2.715.557 1.554 0 2.716-.556t1.808-1.56q.646-1.005.645-2.345 0-1.34-.645-2.345-.647-1.005-1.808-1.56m-.76 4.897a1.7 1.7 0 0 1-.767.636q-.499.22-1.19.22-.692 0-1.191-.22a1.7 1.7 0 0 1-.766-.636q-.266-.414-.267-.992 0-.579.267-.993.265-.414.766-.635.499-.22 1.19-.221.692 0 1.191.22.499.222.767.636.266.414.266.993 0 .578-.266.992M112.361 15.663q-.822-.38-1.979-.38h-4.956v8.513h2.926V21.48h2.029q1.155 0 1.978-.38t1.254-1.079q.43-.697.431-1.64 0-.943-.431-1.64-.43-.698-1.254-1.08zm-1.503 3.32q-.238.216-.669.216h-1.836v-1.634h1.836q.431 0 .669.21t.239.607c0 .265-.08.458-.239.602zM117.82 20.788v-5.506h-2.902v8.513h3.707l3.449-5.688v5.688h2.901v-8.513h-3.821zM129.535 15.282q-1.02 0-1.786.358-.767.357-1.191.992-.426.636-.425 1.498c0 .574.141 1.048.425 1.465q.425.622 1.191.96c.1.044.206.08.313.116l-2.179 3.125h3.345l1.897-2.837h.948v2.837h2.925v-8.512h-5.466zm.453 3.643q-.431 0-.669-.204t-.239-.59q0-.384.239-.589.238-.204.669-.204h2.087v1.589h-2.087zM25.332 7.297h3.062v5.902h2.925V7.297h3.063V4.686h-9.05zM52.02 5.066q-.823-.38-1.979-.38h-4.956V13.2h2.925v-2.315h2.031q1.155 0 1.979-.38.822-.38 1.253-1.078t.431-1.64q0-.944-.43-1.641-.433-.699-1.254-1.079m-1.503 3.32q-.238.216-.669.215h-1.836V6.967h1.836q.431 0 .67.21.237.21.237.607c0 .265-.08.458-.238.602M61.512 7.381q-.823-.38-1.98-.38h-2.03V4.685h-2.925v8.512h4.956q1.155 0 1.979-.38.822-.379 1.253-1.079.43-.697.431-1.64 0-.943-.43-1.64-.432-.698-1.254-1.08zm-1.503 3.32q-.238.215-.669.215h-1.836V9.282h1.836q.43 0 .67.21.236.21.237.607c0 .265-.08.458-.238.602M66.676 4.686H63.75v8.512h2.925zM70.657 13.2h2.925V7.296h2.479l1.144-2.611h-9.61v2.61h3.062zM82.751 4.686H78.85l-3.73 8.512h3.117l.582-1.43h3.962l.581 1.43h3.118l-3.73-8.512zm-2.984 4.756L80.8 6.9l1.034 2.542zM90.02 13.2l1.897-2.837h.948v2.836h2.925V4.686h-5.466q-1.02 0-1.786.357-.766.358-1.191.993t-.425 1.497c0 .574.141 1.048.425 1.465q.426.624 1.19.96.152.066.313.117l-2.178 3.123h3.345zm.09-6.255q.238-.204.67-.204h2.087v1.59H90.78q-.432-.001-.67-.205-.236-.203-.237-.59 0-.386.238-.59M35.539 15.282v2.611H38.6v5.901h2.925v-5.9h3.009l-.383-2.612zM44.181 13.2l-3.084-4.798 2.971-3.716h-3.061L38.204 8.6V4.686H35.3v8.513h2.904V8.854l2.666 4.345z"/>
  </g>
  <defs>
    <clipPath id="a">
      <path fill="#fff" d="M0 0h135v24H0z"/>
    </clipPath>
  </defs>
</svg>