<svg width="180" height="56" viewBox="0 0 180 56" fill="none" xmlns="http://www.w3.org/2000/svg">
<g clip-path="url(#clip0_494_1157)">
<path d="M173.826 20.9766L167.685 27.6975V20.9766H163.24V37.9429H167.685V30.7998L174.259 37.9429H180L171.914 29.0532L179.414 20.9766H173.826Z" fill="white" fill-opacity="0.5"/>
<path d="M155.404 27.3042H149.262V20.9766H144.815V37.9429H149.262V31.2533H155.404V37.9429H159.848V20.9766H155.404V27.3042Z" fill="white" fill-opacity="0.5"/>
<path d="M26.3898 30.1677C26.2836 33.3304 25.866 33.9648 24.0453 33.9648V37.9429H24.7247C29.2679 37.9429 30.3599 35.6511 30.5279 30.5586L30.7131 24.9232H34.9723V37.9429H39.4167V20.9766H26.7011L26.3923 30.1677H26.3898Z" fill="white" fill-opacity="0.5"/>
<path d="M50.4623 26.1294H47.2531V20.9766H42.8087V37.9453H50.524C55.3687 37.9453 57.098 34.8719 57.098 31.977C57.098 28.2402 54.6917 26.1294 50.4623 26.1294ZM50.1213 34.2061H47.2506V29.8951H50.1213C51.6654 29.8951 52.5894 30.5586 52.5894 31.9746C52.5894 33.5113 51.695 34.2061 50.1213 34.2061Z" fill="white" fill-opacity="0.5"/>
<path d="M71.5726 20.5834V14.2847H67.1282V20.5834C62.0365 21.0056 58.61 24.5325 58.61 29.4441C58.61 34.3557 62.0365 37.914 67.1282 38.3337V44.7241H71.5726V38.3337C76.6643 37.9429 80.0909 34.3846 80.0909 29.4441C80.0909 24.5035 76.6643 20.9742 71.5726 20.5834ZM67.1282 34.2375C64.6602 33.9046 63.1161 32.0977 63.1161 29.4465C63.1161 26.7953 64.6602 24.986 67.1282 24.6555V34.2399V34.2375ZM71.5726 34.2375V24.6531C74.0406 24.9836 75.5847 26.7929 75.5847 29.4441C75.5847 32.0953 74.0406 33.9046 71.5726 34.2351" fill="white" fill-opacity="0.5"/>
<path d="M96.7592 32.7298V27.0341C96.7592 22.8752 94.0442 20.2529 89.4762 20.2529C84.9083 20.2529 82.2525 23.0248 82.0376 25.9196H86.5438C86.6969 25.2876 87.3763 24.202 89.4762 24.202C91.2056 24.202 92.3148 24.986 92.3148 27.0341H87.9001C83.9497 27.0341 81.6028 29.0533 81.6028 32.4282C81.6028 35.8032 84.1696 38.3651 87.868 38.3651C90.5806 38.3651 92.0876 37.1131 92.7447 36.165C93.3302 37.3109 94.6272 37.9429 96.3244 37.9429H97.8685V34.0252C97.0656 34.0252 96.7568 33.6634 96.7568 32.7298M92.3148 31.6153C92.3148 33.5741 90.8943 34.6886 89.0439 34.6886C87.4381 34.6886 86.1732 34.1169 86.1732 32.4282C86.1732 30.7396 87.5616 30.4983 88.7647 30.4983H92.3148V31.6128V31.6153Z" fill="white" fill-opacity="0.5"/>
<path d="M115.804 23.3866H110.836V18.5956H122.349V14.2847H106.174V37.9429H115.804C121.143 37.9429 124.199 35.352 124.199 30.59C124.199 26.1005 121.143 23.3866 115.804 23.3866ZM115.587 33.6633H110.834V27.5142H115.587C118.055 27.5142 119.446 28.6287 119.446 30.5876C119.446 32.5464 118.057 33.6609 115.587 33.6609" fill="white" fill-opacity="0.5"/>
<path d="M141.206 32.7298V27.0341C141.206 22.8752 138.491 20.2529 133.923 20.2529C129.355 20.2529 126.702 23.0248 126.484 25.9196H130.99C131.144 25.2876 131.823 24.202 133.923 24.202C135.652 24.202 136.761 24.986 136.761 27.0341H132.347C128.396 27.0341 126.049 29.0533 126.049 32.4282C126.049 35.8032 128.616 38.3651 132.315 38.3651C135.027 38.3651 136.534 37.1131 137.191 36.165C137.777 37.3109 139.074 37.9429 140.771 37.9429H142.315V34.0252C141.512 34.0252 141.203 33.6634 141.203 32.7298M136.761 31.6153C136.761 33.5741 135.341 34.6886 133.491 34.6886C131.885 34.6886 130.62 34.1169 130.62 32.4282C130.62 30.7396 132.008 30.4983 133.211 30.4983H136.761V31.6128V31.6153Z" fill="white" fill-opacity="0.5"/>
<path d="M23.7661 45.1777H0V50.0001H23.7661V45.1777Z" fill="white" fill-opacity="0.5"/>
<path d="M16.204 17.5317C15.5246 15.5584 14.7439 14 12.0684 14C9.39282 14 8.56026 15.5512 7.84876 17.5317L0.49411 37.9429H5.37086L7.06809 33.0916H16.451L18.0247 37.9429H23.2103L16.204 17.5317ZM8.48862 28.993L11.8213 19.3193H11.9448L15.0922 28.993H8.48615H8.48862Z" fill="white" fill-opacity="0.5"/>
</g>
<defs>
<clipPath id="clip0_494_1157">
<rect width="180" height="36" fill="white" transform="translate(0 14)"/>
</clipPath>
</defs>
</svg>
