<svg xmlns="http://www.w3.org/2000/svg" width="28" height="28" fill="none">
  <path fill="#fff" d="M22.49 14.84c-.15.2-.3.4-.47.61l-.18.21c2.85 4.13 3.86 7.68 2.68 8.86-.31.31-.81.47-1.48.47-1.65 0-4.3-1.01-7.38-3.15l-.22.19c-.2.16-.39.31-.59.46C18 24.71 20.96 26 23.04 26c.92 0 1.67-.25 2.19-.77 1.7-1.7.47-5.86-2.74-10.39M21.25 14.82c.22-.28.43-.55.63-.82 3.66-4.86 5.16-9.43 3.35-11.23-.52-.52-1.27-.77-2.19-.77-2.27 0-5.59 1.51-9.04 4.11C10.54 3.51 7.23 2 4.96 2c-.92 0-1.67.25-2.19.77C.96 4.58 2.46 9.15 6.12 14 2.46 18.86.96 23.43 2.77 25.23c.52.52 1.27.77 2.19.77 2.27 0 5.59-1.51 9.04-4.11q.405-.3.81-.63a40.8 40.8 0 0 0 6.43-6.43zM3.47 3.47c.31-.31.81-.47 1.48-.47 1.79 0 4.78 1.19 8.23 3.75a40.8 40.8 0 0 0-6.43 6.43C3.45 8.7 2.22 4.73 3.47 3.47M14 20.63c-1.14-.9-2.31-1.93-3.51-3.13s-2.21-2.35-3.11-3.51a41 41 0 0 1 3.11-3.51A39 39 0 0 1 14 7.35c1.14.9 2.31 1.93 3.51 3.13s2.21 2.35 3.11 3.51a41 41 0 0 1-3.11 3.51A39 39 0 0 1 14 20.63"/>
  <path fill="#fff" d="M14 16.98a2.98 2.98 0 1 0 0-5.96 2.98 2.98 0 0 0 0 5.96M14 4a1 1 0 1 0 0-2 1 1 0 0 0 0 2M14 26a1 1 0 1 0 0-2 1 1 0 0 0 0 2"/>
</svg>