<svg xmlns="http://www.w3.org/2000/svg" width="28" height="28" fill="none">
  <path fill="#fff" d="M8 2H2v14l1-2V7zM11.5 7a1.5 1.5 0 1 0 0-3 1.5 1.5 0 0 0 0 3M16 6a2 2 0 1 0 0-4 2 2 0 0 0 0 4M22.79 23.92 19.92 19h-7.19c-1.54 0-2.51-1.67-1.73-3.01l1-1.72V11h4v3.27L18.18 18h1.16l-2.33-4v-3h.5c.83 0 1.5-.67 1.5-1.5S18.34 8 17.51 8h-7c-.83 0-1.5.67-1.5 1.5s.67 1.5 1.5 1.5h.5v3l-5.79 9.92c-.54.92.13 2.08 1.2 2.08H21.6c1.07 0 1.73-1.16 1.2-2.08zM10.5 10c-.28 0-.5-.22-.5-.5s.22-.5.5-.5h7c.28 0 .5.22.5.5s-.22.5-.5.5z"/>
</svg>