<svg width="28" height="28" viewBox="0 0 28 28" fill="none" xmlns="http://www.w3.org/2000/svg">
<path fill-rule="evenodd" clip-rule="evenodd" d="M7.09992 13.1659C11.3949 11.4724 14.2589 10.356 15.6919 9.81659C19.7834 8.27646 20.6335 8.00893 21.1877 8.00009C21.3095 7.99815 21.5821 8.02549 21.7586 8.15511C21.9076 8.26457 21.9486 8.41242 21.9683 8.5162C21.9879 8.61997 22.0123 8.85637 21.9929 9.04108C21.7712 11.1494 20.8118 16.2657 20.3237 18.6271C20.1172 19.6263 19.7105 19.9613 19.3169 19.9941C18.4613 20.0653 17.8116 19.4823 16.9829 18.9908C15.6862 18.2215 14.9537 17.7426 13.695 16.992C12.2404 16.1245 13.1834 15.6477 14.0124 14.8685C14.2293 14.6646 17.999 11.5615 18.0719 11.28C18.0811 11.2448 18.0895 11.1136 18.0034 11.0443C17.9172 10.975 17.7901 10.9987 17.6983 11.0175C17.5683 11.0442 15.4968 12.2833 11.4839 14.7348C10.8959 15.1002 10.3633 15.2783 9.88616 15.2689C9.36012 15.2586 8.34822 14.9998 7.59598 14.7785C6.67333 14.507 5.94002 14.3635 6.00388 13.9026C6.03714 13.6625 6.40248 13.4169 7.09992 13.1659Z" fill="white"/>
</svg>
