<svg width="160" height="160" viewBox="0 0 160 160" fill="none" xmlns="http://www.w3.org/2000/svg">
<path d="M146.426 51.8441C143.259 45.4803 137.463 40.5996 130.534 38.4693C114.426 33.5078 97.4288 31 80.0134 31C62.598 31 45.6005 33.5078 29.4927 38.4693C22.5643 40.5996 16.7681 45.4803 13.6005 51.8441C9.04443 60.9448 6.75293 70.45 6.75293 80.117C6.75293 89.784 9.04443 99.2892 13.587 108.39C16.7546 114.754 22.5508 119.634 29.4792 121.765C45.587 126.726 62.5846 129.234 79.9999 129.234C97.4153 129.234 114.413 126.726 130.521 121.765C137.449 119.634 143.245 114.754 146.413 108.39C150.942 99.2892 153.247 89.784 153.247 80.117C153.247 70.45 150.955 60.9448 146.426 51.8441ZM137.975 104.183C135.953 108.242 132.219 111.37 127.757 112.745C112.553 117.423 96.4852 119.796 79.9999 119.796C63.5146 119.796 47.4607 117.423 32.2425 112.745C27.7673 111.37 24.047 108.242 22.0251 104.183C18.1565 96.404 16.1885 88.3144 16.1885 80.117C16.1885 71.9196 18.1565 63.8301 22.0251 56.0506C24.047 51.9789 27.7808 48.8644 32.2559 47.4892C47.4607 42.8107 63.5281 40.4378 79.9999 40.4378C96.4717 40.4378 112.539 42.8107 127.744 47.4892C132.219 48.8644 135.939 51.9789 137.975 56.0506C141.843 63.8301 143.811 71.9196 143.811 80.117C143.811 88.3144 141.843 96.404 137.975 104.183Z" fill="#020000"/>
<path d="M38.5374 60.6892L56.1414 80.1176L38.5374 99.546H55.1035L72.6941 80.1176L55.1035 60.6892H38.5374Z" fill="#020000"/>
<path d="M104.896 60.6892L87.3057 80.1176L104.896 99.546H121.462L103.872 80.1176L121.462 60.6892H104.896Z" fill="#020000"/>
</svg>
