<svg xmlns="http://www.w3.org/2000/svg" style="display:none">
  <symbol id="logo-full" viewBox="0 0 182 32">
    <g fill="#fff" clip-path="url(#a)">
      <path d="M35.63 8.788c-.808-1.623-2.286-2.868-4.054-3.412-4.109-1.266-8.445-1.905-12.887-1.905S9.91 4.11 5.8 5.376c-1.768.544-3.246 1.789-4.054 3.412C.585 11.11 0 13.534 0 16s.585 4.891 1.743 7.213c.808 1.623 2.287 2.868 4.054 3.412 4.11 1.265 8.446 1.905 12.888 1.905s8.779-.64 12.888-1.905c1.767-.544 3.246-1.789 4.054-3.412C36.782 20.89 37.37 18.466 37.37 16s-.584-4.89-1.74-7.212M33.475 22.14c-.515 1.035-1.468 1.833-2.606 2.184-3.879 1.193-7.977 1.798-12.183 1.798s-8.3-.605-12.183-1.798a4.33 4.33 0 0 1-2.606-2.184C2.909 20.155 2.407 18.09 2.407 16s.502-4.154 1.489-6.139c.516-1.039 1.468-1.833 2.61-2.184 3.878-1.193 7.977-1.799 12.18-1.799 4.201 0 8.3.606 12.179 1.8a4.34 4.34 0 0 1 2.61 2.183c.986 1.985 1.488 4.048 1.488 6.14 0 2.09-.502 4.154-1.489 6.139"/>
      <path d="M8.108 11.044 12.598 16l-4.49 4.956h4.226L16.822 16l-4.488-4.956zM25.036 11.044 20.55 16l4.487 4.956h4.226L24.775 16l4.487-4.956zM64.879 5.874h-2.833v20.248h2.833zM79.974 13.888H66.402l2.077 2.545h11.495v9.689h2.837V5.874h-2.837zM164.068 5.874h-2.833v20.248h2.833zM179.167 5.874v8.014h-13.576l2.081 2.545h11.495v9.689H182V5.874zM89.692 24.068V5.874h-2.834v20.248h4.86L104.7 7.9v18.222h2.834V5.874h-4.859zM114.419 24.068V5.874h-2.834v20.248h4.855L129.425 7.9v18.222h2.836V5.874h-4.858zM154.065 14.958a5.1 5.1 0 0 0 1.706-1.606q.664-.998.663-2.56 0-1.475-.536-2.414a4 4 0 0 0-1.517-1.503q-.983-.563-2.355-.78a20 20 0 0 0-3.081-.217h-12.637v20.248h13.449q3.817 0 5.797-1.373t1.981-4.526q-.001-2.254-.884-3.457-.882-1.2-2.589-1.809zM139.142 8.42h9.483q1.188-.001 2.081.086.896.087 1.489.36.592.276.897.809.304.537.303 1.403-.001.868-.275 1.431-.276.563-.84.884-.562.32-1.461.433a17 17 0 0 1-2.139.117h-9.542V8.42zm15.14 13.045a2.45 2.45 0 0 1-.695 1.142q-.506.48-1.43.722-.927.248-2.4.248h-10.612v-7.085h10.526q1.532-.001 2.472.23.94.232 1.461.695.52.463.695 1.1.174.636.172 1.476a5.3 5.3 0 0 1-.189 1.476zM50.275 0h-1.134v32h1.134z"/>
    </g>
    <defs>
      <clipPath id="a">
        <path fill="#fff" d="M0 0h182v32H0z"/>
      </clipPath>
    </defs>
  </symbol>

  <symbol id="logo-sign" viewBox="0 0 38 32">
    <path fill="#fff" d="M35.324 9.052c-.779-1.564-2.203-2.763-3.905-3.287C27.46 4.546 23.283 3.93 19.003 3.93s-8.456.616-12.415 1.835c-1.702.524-3.127 1.723-3.905 3.287C1.563 11.288 1 13.624 1 16c0 2.375.563 4.711 1.68 6.948.778 1.564 2.202 2.763 3.905 3.287C10.543 27.454 14.72 28.07 19 28.07s8.457-.616 12.415-1.835c1.703-.524 3.127-1.723 3.906-3.287C36.434 20.71 37 18.375 37 16s-.563-4.712-1.676-6.948m-2.077 12.862a4.18 4.18 0 0 1-2.51 2.104C27 25.168 23.05 25.751 19 25.751s-7.996-.583-11.736-1.733a4.18 4.18 0 0 1-2.511-2.104c-.95-1.912-1.434-3.9-1.434-5.914 0-2.015.483-4.002 1.434-5.914.497-1 1.414-1.766 2.514-2.104C11.004 6.832 14.952 6.249 19 6.249s7.996.583 11.733 1.733a4.18 4.18 0 0 1 2.514 2.104c.95 1.912 1.434 3.9 1.434 5.914s-.483 4.002-1.434 5.914"/>
    <path fill="#fff" d="M8.81 11.226 13.138 16 8.81 20.774h4.07L17.206 16l-4.323-4.774zM25.118 11.226 20.795 16l4.323 4.774h4.071L24.866 16l4.323-4.774z"/>
  </symbol>

  <symbol id="divider" viewBox="0 0 12 12">
    <circle cx="10" cy="10" r="2" fill="#f85600"/>
    <circle cx="10" cy="2" r="2" fill="#f85600"/>
    <circle cx="2" cy="10" r="2" fill="#f85600"/>
  </symbol>

  <symbol id="ot-logo" viewBox="0 0 135 24">
    <g fill="#fff" clip-path="url(#a)">
      <path d="M24.953 18.295H9.14a9 9 0 0 1-3.774-.82A9.18 9.18 0 0 1 0 9.147 9.18 9.18 0 0 1 5.365.82 9 9 0 0 1 9.139 0h15.814v1.778H9.14a7.3 7.3 0 0 0-3.038.66 7.39 7.39 0 0 0-4.324 6.71A7.39 7.39 0 0 0 6.1 15.855c.96.438 1.982.66 3.038.66h15.814z"/>
      <path d="M24.243 6.57q-.71-1.103-1.988-1.715t-2.985-.612q-1.707 0-2.985.612T14.298 6.57t-.71 2.577.71 2.577q.71 1.103 1.988 1.715 1.28.612 2.985.612 1.708 0 2.985-.612 1.278-.612 1.988-1.715t.71-2.577q0-1.472-.71-2.577M48.526 20.548h4.565v-2.02h-4.565l-.154-.93h5.083v-2.316h-8.176l.624 4.256-.624 4.256h8.232V21.48h-5.139zM61.648 15.663q-.823-.38-1.979-.38h-4.956v8.513h2.925V21.48h2.03q1.156 0 1.978-.38t1.254-1.079q.43-.697.43-1.64t-.43-1.64q-.43-.698-1.254-1.08zm-1.503 3.32q-.238.216-.669.216H57.64v-1.634h1.836q.431 0 .67.21.236.21.237.607c0 .265-.08.458-.238.602zM71.14 15.663q-.823-.38-1.98-.38h-4.955v8.513h2.925V21.48h2.03q1.157 0 1.98-.38.822-.38 1.253-1.079.43-.697.431-1.64 0-.943-.43-1.64-.432-.698-1.254-1.08m-1.503 3.32q-.238.216-.669.216h-1.836v-1.634h1.836q.431 0 .67.21.236.21.237.607c0 .265-.08.458-.238.602zM76.6 20.788v-5.506h-2.903v8.513h3.708l3.447-5.688v5.688h2.904v-8.513h-3.822zM84.674 17.893h3.061v5.901h2.926v-5.9h3.063v-2.612h-9.05zM101.928 15.635q-1.163-.556-2.716-.557-1.553 0-2.715.557-1.163.555-1.808 1.56-.647 1.004-.647 2.345 0 1.34.647 2.344.646 1.005 1.808 1.56 1.163.556 2.715.557 1.554 0 2.716-.556t1.808-1.56q.646-1.005.645-2.345 0-1.34-.645-2.345-.647-1.005-1.808-1.56m-.76 4.897a1.7 1.7 0 0 1-.767.636q-.499.22-1.19.22-.692 0-1.191-.22a1.7 1.7 0 0 1-.766-.636q-.266-.414-.267-.992 0-.579.267-.993.265-.414.766-.635.499-.22 1.19-.221.692 0 1.191.22.499.222.767.636.266.414.266.993 0 .578-.266.992M112.361 15.663q-.822-.38-1.979-.38h-4.956v8.513h2.926V21.48h2.029q1.155 0 1.978-.38t1.254-1.079q.43-.697.431-1.64 0-.943-.431-1.64-.43-.698-1.254-1.08zm-1.503 3.32q-.238.216-.669.216h-1.836v-1.634h1.836q.431 0 .669.21t.239.607c0 .265-.08.458-.239.602zM117.82 20.788v-5.506h-2.902v8.513h3.707l3.449-5.688v5.688h2.901v-8.513h-3.821zM129.535 15.282q-1.02 0-1.786.358-.767.357-1.191.992-.426.636-.425 1.498c0 .574.141 1.048.425 1.465q.425.622 1.191.96c.1.044.206.08.313.116l-2.179 3.125h3.345l1.897-2.837h.948v2.837h2.925v-8.512h-5.466zm.453 3.643q-.431 0-.669-.204t-.239-.59q0-.384.239-.589.238-.204.669-.204h2.087v1.589h-2.087zM25.332 7.297h3.062v5.902h2.925V7.297h3.063V4.686h-9.05zM52.02 5.066q-.823-.38-1.979-.38h-4.956V13.2h2.925v-2.315h2.031q1.155 0 1.979-.38.822-.38 1.253-1.078t.431-1.64q0-.944-.43-1.641-.433-.699-1.254-1.079m-1.503 3.32q-.238.216-.669.215h-1.836V6.967h1.836q.431 0 .67.21.237.21.237.607c0 .265-.08.458-.238.602M61.512 7.381q-.823-.38-1.98-.38h-2.03V4.685h-2.925v8.512h4.956q1.155 0 1.979-.38.822-.379 1.253-1.079.43-.697.431-1.64 0-.943-.43-1.64-.432-.698-1.254-1.08zm-1.503 3.32q-.238.215-.669.215h-1.836V9.282h1.836q.43 0 .67.21.236.21.237.607c0 .265-.08.458-.238.602M66.676 4.686H63.75v8.512h2.925zM70.657 13.2h2.925V7.296h2.479l1.144-2.611h-9.61v2.61h3.062zM82.751 4.686H78.85l-3.73 8.512h3.117l.582-1.43h3.962l.581 1.43h3.118l-3.73-8.512zm-2.984 4.756L80.8 6.9l1.034 2.542zM90.02 13.2l1.897-2.837h.948v2.836h2.925V4.686h-5.466q-1.02 0-1.786.357-.766.358-1.191.993t-.425 1.497c0 .574.141 1.048.425 1.465q.426.624 1.19.96.152.066.313.117l-2.178 3.123h3.345zm.09-6.255q.238-.204.67-.204h2.087v1.59H90.78q-.432-.001-.67-.205-.236-.203-.237-.59 0-.386.238-.59M35.539 15.282v2.611H38.6v5.901h2.925v-5.9h3.009l-.383-2.612zM44.181 13.2l-3.084-4.798 2.971-3.716h-3.061L38.204 8.6V4.686H35.3v8.513h2.904V8.854l2.666 4.345z"/>
    </g>
    <defs>
      <clipPath id="a">
        <path fill="#fff" d="M0 0h135v24H0z"/>
      </clipPath>
    </defs>
  </symbol>

  <symbol id="segment-left-secondary" viewBox="0 0 12 40">
    <path fill="currentColor" d="M2 0H12V40H11.6569C10.596 40 9.57857 39.5786 8.82843 38.8284L1.17157 31.1716C0.421427 30.4214 0 29.404 0 28.3431V2C0 0.895432 0.895431 0 2 0Z" />
  </symbol>

  <symbol id="segment-right-secondary" viewBox="0 0 12 40">
    <path fill="currentColor" d="M10 40H0V0H0.343145C1.40401 0 2.42143 0.421428 3.17157 1.17157L10.8284 8.82843C11.5786 9.57857 12 10.596 12 11.6569V38C12 39.1046 11.1046 40 10 40Z" />
  </symbol>

  <symbol id="segment-left-primary" viewBox="0 0 18 60">
    <clipPath id="c">
      <rect width="18" height="60"/>
    </clipPath>
    <g clip-path="url(#c)">
      <path fill="currentColor" d="M3 60H18V0h-.515C15.894 0 14.368.632 13.243 1.757L1.757 13.243C.632 14.368 0 15.894 0 17.485V57c0 1.657 1.343 3 3 3z" />
      <line x1="-3.707" y1="12.293" x2="17.506" y2="-8.92" stroke="currentColor" stroke-width="2"/>
    </g>
  </symbol>

  <symbol id="segment-right-primary" viewBox="0 0 18 60">
    <path fill="currentColor" d="M15 0H0v60h.515C2.106 60 3.632 59.368 4.757 58.243L16.243 46.757C17.368 45.632 18 44.106 18 42.515V3c0-1.657-1.343-3-3-3z" />
    <path fill="var(--circle, #D8A48C)" d="M 12 57 A 3 3 0 1 0 18 57 A 3 3 0 1 0 12 57 Z" />
  </symbol>

  <symbol id="segment-left-ghost" viewBox="0 0 12 40">
    <path stroke="currentColor" d="M12 0.5H2.33333C1.32081 0.5 0.5 1.37305 0.5 2.45V28.1346C0.5 29.1689 0.886308 30.1609 1.57394 30.8923L8.59273 38.3577C9.28036 39.0891 10.213 39.5 11.1855 39.5H12" />
  </symbol>

  <symbol id="segment-right-ghost" viewBox="0 0 12 40">
    <path stroke="currentColor" d="M0 39.5H9.66667C10.6792 39.5 11.5 38.627 11.5 37.55V11.8654C11.5 10.8311 11.1137 9.83911 10.4261 9.10772L3.40727 1.64228C2.71964 0.910889 1.78701 0.5 0.814549 0.5H0" />
  </symbol>

  <symbol id="telegram" viewBox="0 0 28 28">
    <path fill="currentColor" fill-rule="evenodd" clip-rule="evenodd" d="M7.09992 13.1659C11.3949 11.4724 14.2589 10.356 15.6919 9.81659C19.7834 8.27646 20.6335 8.00893 21.1877 8.00009C21.3095 7.99815 21.5821 8.02549 21.7586 8.15511C21.9076 8.26457 21.9486 8.41242 21.9683 8.5162C21.9879 8.61997 22.0123 8.85637 21.9929 9.04108C21.7712 11.1494 20.8118 16.2657 20.3237 18.6271C20.1172 19.6263 19.7105 19.9613 19.3169 19.9941C18.4613 20.0653 17.8116 19.4823 16.9829 18.9908C15.6862 18.2215 14.9537 17.7426 13.695 16.992C12.2404 16.1245 13.1834 15.6477 14.0124 14.8685C14.2293 14.6646 17.999 11.5615 18.0719 11.28C18.0811 11.2448 18.0895 11.1136 18.0034 11.0443C17.9172 10.975 17.7901 10.9987 17.6983 11.0175C17.5683 11.0442 15.4968 12.2833 11.4839 14.7348C10.8959 15.1002 10.3633 15.2783 9.88616 15.2689C9.36012 15.2586 8.34822 14.9998 7.59598 14.7785C6.67333 14.507 5.94002 14.3635 6.00388 13.9026C6.03714 13.6625 6.40248 13.4169 7.09992 13.1659Z" />
  </symbol>

  <symbol id="vk" viewBox="0 0 28 28">
    <path fill="currentColor" d="M14.8932 20C8.05994 20 4.16241 15.8709 4 9H7.42287C7.5353 14.043 10.0587 16.1792 12.0574 16.6196V9H15.2805V13.3493C17.2543 13.1621 19.3277 11.1802 20.0273 9H23.2503C22.7132 11.6867 20.4646 13.6687 18.8656 14.4835C20.4646 15.1441 23.0256 16.8729 24 20H20.4521C19.6901 17.9079 17.7914 16.2893 15.2805 16.069V20H14.8932Z" />
  </symbol>

  <symbol id="burger" viewBox="0 0 28 28">
    <path fill="currentColor" d="m5 4 2 2h3v3l1 1h10V4zM8 13l2 2h6l4 4h1v-6zM15 20l2 2H5l2 2h14v-2l-2-2z"/>
  </symbol>

  <symbol id="close" viewBox="0 0 28 28">
    <path fill="currentColor" d="M16.71 15.29 23 9V5h-4v2.59l-3.71 3.7L9 5H5v4l3 3v-1.41L6.41 9h1.18l3.7 3.71L5 19v4h4v-2.59l3.71-3.7L19 23h4v-4l-3-3v1.41L21.59 19h-1.18z"/>
  </symbol>

  <symbol id="play" viewBox="0 0 28 28">
    <path fill="currentColor" d="m6 26 20-12L6 2zm18.06-12-1.51.91L7 5.58V3.76l17.06 10.23z"/>
  </symbol>

  <symbol id="pause" viewBox="0 0 28 28">
    <path fill="currentColor" d="M7 25h1v-7l-1 1zM15 13l1-1V3l-1 1zM17 3v22h4V3zm3 21h-1V4h1zM7 3l1 3h1v19h4V3z"/>
  </symbol>

  <symbol id="regular" viewBox="0 0 28 28">
    <path fill="currentColor" d="M14 3c2.76 0 5 2.24 5 5s-2.24 5-5 5-5-2.24-5-5 2.24-5 5-5m0-1c-3.31 0-6 2.69-6 6s2.69 6 6 6 6-2.69 6-6-2.69-6-6-6M3 8a1 1 0 1 0 0-2 1 1 0 0 0 0 2M14.5 19v5c0 1.1.9 2 2 2H26l-5.4-10.18a2 2 0 0 0-1.62-.82H9.02c-.64 0-1.24.31-1.62.82L2 26h9.5c1.1 0 2-.9 2-2v-3zM26 2h-6l6 6zM26 9.29l-3-3v1.42l3 3z"/>
  </symbol>

  <symbol id="phenomen" viewBox="0 0 28 28">
    <path fill="currentColor" d="M22.49 14.84c-.15.2-.3.4-.47.61l-.18.21c2.85 4.13 3.86 7.68 2.68 8.86-.31.31-.81.47-1.48.47-1.65 0-4.3-1.01-7.38-3.15l-.22.19c-.2.16-.39.31-.59.46C18 24.71 20.96 26 23.04 26c.92 0 1.67-.25 2.19-.77 1.7-1.7.47-5.86-2.74-10.39M21.25 14.82c.22-.28.43-.55.63-.82 3.66-4.86 5.16-9.43 3.35-11.23-.52-.52-1.27-.77-2.19-.77-2.27 0-5.59 1.51-9.04 4.11C10.54 3.51 7.23 2 4.96 2c-.92 0-1.67.25-2.19.77C.96 4.58 2.46 9.15 6.12 14 2.46 18.86.96 23.43 2.77 25.23c.52.52 1.27.77 2.19.77 2.27 0 5.59-1.51 9.04-4.11q.405-.3.81-.63a40.8 40.8 0 0 0 6.43-6.43zM3.47 3.47c.31-.31.81-.47 1.48-.47 1.79 0 4.78 1.19 8.23 3.75a40.8 40.8 0 0 0-6.43 6.43C3.45 8.7 2.22 4.73 3.47 3.47M14 20.63c-1.14-.9-2.31-1.93-3.51-3.13s-2.21-2.35-3.11-3.51a41 41 0 0 1 3.11-3.51A39 39 0 0 1 14 7.35c1.14.9 2.31 1.93 3.51 3.13s2.21 2.35 3.11 3.51a41 41 0 0 1-3.11 3.51A39 39 0 0 1 14 20.63"/>
    <path fill="currentColor" d="M14 16.98a2.98 2.98 0 1 0 0-5.96 2.98 2.98 0 0 0 0 5.96M14 4a1 1 0 1 0 0-2 1 1 0 0 0 0 2M14 26a1 1 0 1 0 0-2 1 1 0 0 0 0 2"/>
  </symbol>

  <symbol id="science" viewBox="0 0 28 28">
    <path fill="currentColor" d="M8 2H2v14l1-2V7zM11.5 7a1.5 1.5 0 1 0 0-3 1.5 1.5 0 0 0 0 3M16 6a2 2 0 1 0 0-4 2 2 0 0 0 0 4M22.79 23.92 19.92 19h-7.19c-1.54 0-2.51-1.67-1.73-3.01l1-1.72V11h4v3.27L18.18 18h1.16l-2.33-4v-3h.5c.83 0 1.5-.67 1.5-1.5S18.34 8 17.51 8h-7c-.83 0-1.5.67-1.5 1.5s.67 1.5 1.5 1.5h.5v3l-5.79 9.92c-.54.92.13 2.08 1.2 2.08H21.6c1.07 0 1.73-1.16 1.2-2.08zM10.5 10c-.28 0-.5-.22-.5-.5s.22-.5.5-.5h7c.28 0 .5.22.5.5s-.22.5-.5.5z"/>
  </symbol>

  <symbol id="person-position-segment-left" viewBox="0 0 12 28">
    <g fill="currentColor" clip-path="url(#a)">
      <path d="M2 28h10V0H9.657a4 4 0 0 0-2.829 1.172L1.172 6.828A4 4 0 0 0 0 9.657V26a2 2 0 0 0 2 2"/>
      <circle cx="1" cy="1" r="1"/>
    </g>
    <defs>
      <clipPath id="a">
        <path fill="currentColor" d="M0 0h12v28H0z"/>
      </clipPath>
    </defs>
  </symbol>

  <symbol id="person-position-segment-right" viewBox="0 0 12 28">
    <g clip-path="url(#a)">
      <path fill="#fff" d="M10 0H0v28h2.343a4 4 0 0 0 2.829-1.172l5.656-5.656A4 4 0 0 0 12 18.343V2a2 2 0 0 0-2-2"/>
      <path stroke="#fff" d="M3.646 31.646 14.96 20.333"/>
    </g>
    <defs>
      <clipPath id="a">
        <path fill="#fff" d="M0 0h12v28H0z"/>
      </clipPath>
    </defs>
  </symbol>

  <symbol id="person-paginator-segment" viewBox="0 0 40 88">
    <path fill="#f85600" d="M22 51.2v1.17l7-4.2V47zM8 48.82v1.16l8-4.8v-1.16z"/>
    <path fill="#f85600" d="m11 56 20-12-20-12v5.98L21.03 44 11 50.02zm18.06-12-1.51.91L12 35.58v-1.82l17.06 10.23z"/>
    <circle cx="17" cy="74" r="2" fill="#f85600"/>
    <circle cx="24" cy="74" r="1" fill="#d9d9d9"/>
  </symbol>

  <symbol id="footer-segment-left" viewBox="0 0 76 200">
    <g clip-path="url(#clip0_269_1073)">
      <path d="M0 68.2843V180C0 191.046 8.95431 200 20 200H76V0H68.2843C62.9799 0 57.8929 2.10714 54.1421 5.85787L5.85786 54.1421C2.10714 57.8929 0 62.9799 0 68.2843Z" fill="#310000"/>
      <line x1="-11.4142" y1="52.5858" x2="152.586" y2="-111.414" stroke="#310000" stroke-width="4"/>
    </g>
    <defs>
      <clipPath id="clip0_269_1073">
        <rect width="76" height="200" fill="white"/>
      </clipPath>
    </defs>
  </symbol>

  <symbol id="footer-segment-right" viewBox="0 0 76 200">
    <path fill="#310000" d="M76 131.716V20C76 8.954 67.046 0 56 0H0v200h7.716a20 20 0 0 0 14.142-5.858l48.284-48.284A20 20 0 0 0 76 131.716"/>
    <circle cx="70" cy="194" r="6" fill="#310000"/>
    <circle cx="70" cy="178" r="6" fill="#310000"/>
    <circle cx="54" cy="194" r="6" fill="#310000"/>
  </symbol>
</svg>